<mxfile host="app.diagrams.net" modified="2023-11-24T16:03:43.059Z" agent="Mozilla/5.0 (Windows NT 10.0; Win64; x64) AppleWebKit/537.36 (KHTML, like Gecko) Chrome/116.0.5845.660 YaBrowser/23.9.0.0 Safari/537.36" version="22.1.3" etag="ZlUa4rpdfTZk3hBf7f-J" type="github">
  <diagram name="Страница — 1" id="z35j1nJZ1w5Pd8TCPACE">
    <mxGraphModel>
      <root>
        <mxCell id="0" />
        <mxCell id="1" parent="0" />
      </root>
    </mxGraphModel>
  </diagram>
</mxfile>
